<?xml version="1.0" encoding="UTF-8" standalone="no"?>
<!DOCTYPE svg PUBLIC "-//W3C//DTD SVG 1.1//EN" "http://www.w3.org/Graphics/SVG/1.1/DTD/svg11.dtd">
<!-- Created with Vectornator (http://vectornator.io/) -->
<svg height="100%" stroke-miterlimit="10" style="fill-rule:nonzero;clip-rule:evenodd;stroke-linecap:round;stroke-linejoin:round;" version="1.1" viewBox="0 0 400 100" width="100%" xml:space="preserve" xmlns="http://www.w3.org/2000/svg" xmlns:xlink="http://www.w3.org/1999/xlink">
<defs/>
<g id="Untitled">
<path d="M138.991 16.1118L109.644 33.0559L109.644 66.9441L138.991 83.8882L168.338 66.9441L168.338 33.0559L138.991 16.1118Z" fill="#4a9ea1" fill-rule="nonzero" opacity="1" stroke="none"/>
<path d="M135.881 20.2729L135.883 20.2729C137.678 21.5976 140.127 21.5976 141.921 20.2729L163.197 32.5574C163.155 32.9356 163.155 33.3173 163.197 33.6955L141.918 45.98C140.124 44.6567 137.677 44.6567 135.883 45.98L114.602 33.6955C114.644 33.3183 114.644 32.9375 114.602 32.5602L135.881 20.2729Z" fill="#63d3d7" fill-rule="nonzero" opacity="1" stroke="none"/>
<path d="M165.242 37.09C165.55 37.3159 165.88 37.5051 166.228 37.6576L166.228 62.2266C164.183 63.1185 162.958 65.2397 163.209 67.4566L141.93 79.7411C141.623 79.5166 141.293 79.3272 140.944 79.1763L140.919 54.7401C142.964 53.8494 144.189 51.7295 143.94 49.5128L165.242 37.09Z" fill="#63d3d7" fill-rule="nonzero" opacity="1" stroke="none"/>
<path d="M112.58 37.2255L133.859 49.51C133.608 51.727 134.832 53.8481 136.877 54.7401L136.877 79.3091C136.527 79.4615 136.2 79.6536 135.892 79.8795L114.613 67.595C114.863 65.3781 113.639 63.2569 111.594 62.3649L111.594 37.796C111.944 37.6435 112.272 37.4514 112.582 37.2255L112.58 37.2255Z" fill="#63d3d7" fill-rule="nonzero" opacity="1" stroke="none"/>
<path d="M267.938 24.6494L261.207 36.309L254.475 24.6494L232.058 24.6494L261.207 75.1378L290.356 24.6494L267.938 24.6494Z" fill="#63d3d7" fill-rule="nonzero" opacity="1" stroke="none"/>
<path d="M267.938 24.6494L261.207 36.309L254.475 24.6494L243.717 24.6494L261.207 54.9418L278.696 24.6494L267.938 24.6494Z" fill="#4a9ea1" fill-rule="nonzero" opacity="1" stroke="none"/>
<path d="M198.588 58.0472L198.588 51.3703L191.961 51.3703L191.961 48.5799L198.588 48.5799L198.588 41.9528L201.412 41.9528L201.412 48.5799L208.039 48.5799L208.039 51.3703L201.412 51.3703L201.412 58.0472L198.588 58.0472Z" fill="#34495e" fill-rule="nonzero" opacity="1" stroke="none"/>
</g>
</svg>
